%TF.GenerationSoftware,Altium Limited,Altium Designer,25.4.2 (15)*%
G04 Layer_Color=65535*
%FSLAX45Y45*%
%MOMM*%
%TF.SameCoordinates,9C674899-BB42-4E37-9990-F62A7BD06B00*%
%TF.FilePolarity,Positive*%
%TF.FileFunction,Legend,Top*%
%TF.Part,Single*%
G01*
G75*
%TA.AperFunction,NonConductor*%
%ADD14C,0.25400*%
%ADD22C,0.20000*%
%ADD23C,0.15240*%
%ADD24C,0.12700*%
D14*
X7694608Y8170784D02*
X7669217Y8196175D01*
X7618433D01*
X7593041Y8170784D01*
Y8069217D01*
X7618433Y8043825D01*
X7669217D01*
X7694608Y8069217D01*
X7821567Y8043825D02*
Y8196175D01*
X7745392Y8120000D01*
X7846959D01*
X9014608Y8180783D02*
X8989216Y8206175D01*
X8938433D01*
X8913041Y8180783D01*
Y8079217D01*
X8938433Y8053825D01*
X8989216D01*
X9014608Y8079217D01*
X9065392Y8180783D02*
X9090784Y8206175D01*
X9141567D01*
X9166959Y8180783D01*
Y8155392D01*
X9141567Y8130000D01*
X9116175D01*
X9141567D01*
X9166959Y8104608D01*
Y8079217D01*
X9141567Y8053825D01*
X9090784D01*
X9065392Y8079217D01*
X16433800Y11582351D02*
Y11455392D01*
X16459192Y11430000D01*
X16509975D01*
X16535367Y11455392D01*
Y11582351D01*
X16687718Y11430000D02*
X16586151D01*
X16687718Y11531567D01*
Y11556959D01*
X16662326Y11582351D01*
X16611543D01*
X16586151Y11556959D01*
X11219147Y11706819D02*
X11193755Y11732211D01*
X11142972D01*
X11117580Y11706819D01*
Y11605252D01*
X11142972Y11579860D01*
X11193755D01*
X11219147Y11605252D01*
X11371498Y11579860D02*
X11269931D01*
X11371498Y11681427D01*
Y11706819D01*
X11346106Y11732211D01*
X11295323D01*
X11269931Y11706819D01*
X13464507Y9415739D02*
X13439114Y9441131D01*
X13388332D01*
X13362939Y9415739D01*
Y9314172D01*
X13388332Y9288780D01*
X13439114D01*
X13464507Y9314172D01*
X13515291Y9288780D02*
X13566074D01*
X13540683D01*
Y9441131D01*
X13515291Y9415739D01*
X10358120Y10126931D02*
Y9999972D01*
X10383512Y9974580D01*
X10434295D01*
X10459687Y9999972D01*
Y10126931D01*
X10510471Y10101539D02*
X10535863Y10126931D01*
X10586646D01*
X10612038Y10101539D01*
Y10076147D01*
X10586646Y10050755D01*
X10561254D01*
X10586646D01*
X10612038Y10025363D01*
Y9999972D01*
X10586646Y9974580D01*
X10535863D01*
X10510471Y9999972D01*
X9591040Y12100511D02*
Y11973552D01*
X9616432Y11948160D01*
X9667215D01*
X9692607Y11973552D01*
Y12100511D01*
X9743391Y11948160D02*
X9794174D01*
X9768783D01*
Y12100511D01*
X9743391Y12075119D01*
X14338300Y7457440D02*
Y7609791D01*
X14389082Y7559007D01*
X14439867Y7609791D01*
Y7457440D01*
X14490651D02*
X14541434D01*
X14516043D01*
Y7609791D01*
X14490651Y7584399D01*
X7132287Y9883091D02*
X7081503D01*
X7106895D01*
Y9756132D01*
X7081503Y9730740D01*
X7056112D01*
X7030720Y9756132D01*
X7183071Y9730740D02*
X7233854D01*
X7208463D01*
Y9883091D01*
X7183071Y9857699D01*
D22*
X16950500Y11334500D02*
G03*
X16950500Y11334500I-10000J0D01*
G01*
X9596102Y11780500D02*
G03*
X9596102Y11780500I-10000J0D01*
G01*
X10362000Y9258000D02*
G03*
X10362000Y9258000I-10000J0D01*
G01*
D23*
X7445305Y8490100D02*
G03*
X7445305Y8490100I-179605J0D01*
G01*
X7432605Y9404500D02*
G03*
X7432605Y9404500I-179605J0D01*
G01*
X15795198Y5173802D02*
Y7373798D01*
X14320200D02*
X15795198D01*
X14320200Y5173802D02*
Y7373798D01*
Y5173802D02*
X15795198D01*
X7011700Y9645800D02*
X8916700D01*
X7011700Y8248800D02*
Y9645800D01*
Y8248800D02*
X8916700D01*
Y9645800D01*
D24*
X7590300Y5266700D02*
Y7966700D01*
X8640300Y5266700D02*
Y7966700D01*
X7590300D02*
X8640300D01*
X7590300Y5266700D02*
X8640300D01*
X8905000Y5265000D02*
Y7965000D01*
X9955000Y5265000D02*
Y7965000D01*
X8905000D02*
X9955000D01*
X8905000Y5265000D02*
X9955000D01*
X16945001Y10690000D02*
Y11090000D01*
X16434999Y10690000D02*
Y11090000D01*
X9797502Y11340999D02*
X10187503D01*
X9797502Y11846001D02*
X10187503D01*
X13364999Y8135000D02*
X16064999D01*
X13364999Y9185000D02*
X16064999D01*
X13364999Y8135000D02*
Y9185000D01*
X16064999Y8135000D02*
Y9185000D01*
X12947000Y5045000D02*
Y9871000D01*
X10407000D02*
X12947000D01*
X10407000Y5045000D02*
X12947000D01*
X10407000D02*
Y9871000D01*
X13820000Y10425000D02*
Y11475000D01*
X11120000Y10425000D02*
Y11475000D01*
X13820000D01*
X11120000Y10425000D02*
X13820000D01*
%TF.MD5,d72b3d6a6539adc5099312330169ce75*%
M02*
