%TF.GenerationSoftware,Altium Limited,Altium Designer,25.4.2 (15)*%
G04 Layer_Physical_Order=1*
G04 Layer_Color=255*
%FSLAX45Y45*%
%MOMM*%
%TF.SameCoordinates,9C674899-BB42-4E37-9990-F62A7BD06B00*%
%TF.FilePolarity,Positive*%
%TF.FileFunction,Copper,L1,Top,Signal*%
%TF.Part,Single*%
G01*
G75*
%TA.AperFunction,ConnectorPad*%
G04:AMPARAMS|DCode=10|XSize=1.97mm|YSize=0.6mm|CornerRadius=0.075mm|HoleSize=0mm|Usage=FLASHONLY|Rotation=270.000|XOffset=0mm|YOffset=0mm|HoleType=Round|Shape=RoundedRectangle|*
%AMROUNDEDRECTD10*
21,1,1.97000,0.45000,0,0,270.0*
21,1,1.82000,0.60000,0,0,270.0*
1,1,0.15000,-0.22500,-0.91000*
1,1,0.15000,-0.22500,0.91000*
1,1,0.15000,0.22500,0.91000*
1,1,0.15000,0.22500,-0.91000*
%
%ADD10ROUNDEDRECTD10*%
%ADD11R,3.30200X2.41300*%
G04:AMPARAMS|DCode=12|XSize=1.97mm|YSize=0.6mm|CornerRadius=0.075mm|HoleSize=0mm|Usage=FLASHONLY|Rotation=0.000|XOffset=0mm|YOffset=0mm|HoleType=Round|Shape=RoundedRectangle|*
%AMROUNDEDRECTD12*
21,1,1.97000,0.45000,0,0,0.0*
21,1,1.82000,0.60000,0,0,0.0*
1,1,0.15000,0.91000,-0.22500*
1,1,0.15000,-0.91000,-0.22500*
1,1,0.15000,-0.91000,0.22500*
1,1,0.15000,0.91000,0.22500*
%
%ADD12ROUNDEDRECTD12*%
%TA.AperFunction,Conductor*%
%ADD13C,0.25400*%
%TA.AperFunction,NonConductor*%
%ADD14C,0.25400*%
%TA.AperFunction,ComponentPad*%
%ADD15C,1.60000*%
%ADD16R,1.50800X1.50800*%
%ADD17C,1.75260*%
%ADD18C,3.20000*%
%ADD19R,1.75260X1.75260*%
%ADD20C,1.60020*%
%TA.AperFunction,ViaPad*%
%ADD21C,1.27000*%
G36*
X10370000Y11870000D02*
Y11760000D01*
X10350000Y11740000D01*
X10150000D01*
Y11713045D01*
X10149000D01*
X10136163Y11710491D01*
X10125280Y11703220D01*
X10118009Y11692337D01*
X10115456Y11679500D01*
Y11634500D01*
X10118009Y11621663D01*
X10125280Y11610780D01*
X10130023Y11607612D01*
X10131656Y11601199D01*
Y11585801D01*
X10130023Y11579389D01*
X10125280Y11576220D01*
X10118009Y11565337D01*
X10115456Y11552500D01*
Y11507500D01*
X10118009Y11494663D01*
X10125280Y11483780D01*
X10130023Y11480612D01*
X10131656Y11474199D01*
Y11458801D01*
X10130023Y11452389D01*
X10125280Y11449220D01*
X10118009Y11438337D01*
X10115456Y11425500D01*
Y11380500D01*
X10118009Y11367663D01*
X10125280Y11356780D01*
X10136163Y11349509D01*
X10149000Y11346955D01*
X10150000D01*
Y7450000D01*
X10290000Y7310000D01*
Y7000000D01*
X10490000Y6800000D01*
X10640000D01*
X10670000Y6770000D01*
Y6610000D01*
X10650000Y6590000D01*
X10480000D01*
X10430000Y6640000D01*
X10430000D01*
X9852769Y7200000D01*
X7800000D01*
X7600000Y7400000D01*
Y7930000D01*
X7780000Y8110000D01*
X8930000D01*
X9010000Y8190000D01*
Y9290000D01*
X8950000Y9350000D01*
X8680000D01*
X8640000Y9390000D01*
Y9520000D01*
X9990000Y10870000D01*
Y11880000D01*
X10360000D01*
X10370000Y11870000D01*
D02*
G37*
G36*
X16539999Y11036050D02*
X16499500D01*
Y11035000D01*
X16439999D01*
X16200000Y10795000D01*
Y8485000D01*
Y6029915D01*
Y5740000D01*
D01*
Y5560000D01*
X16139999Y5500000D01*
Y5500000D01*
X12770000D01*
X12680000Y5590000D01*
Y5740000D01*
X12720000Y5780000D01*
Y5780000D01*
X13250000D01*
X13344653Y5874653D01*
X15564999D01*
Y5875000D01*
X15980000D01*
X16010001Y5900227D01*
Y8345530D01*
X15884499Y8485000D01*
X15139999D01*
Y11230000D01*
X16539999D01*
Y11036050D01*
D02*
G37*
D10*
X16880499Y11137498D02*
D03*
X16753500D02*
D03*
X16626500D02*
D03*
X16499500D02*
D03*
Y10642502D02*
D03*
X16626500D02*
D03*
X16753500D02*
D03*
X16880499D02*
D03*
D11*
X16689999Y10890000D02*
D03*
D12*
X10240000Y11657000D02*
D03*
Y11530000D02*
D03*
Y11403000D02*
D03*
X9745005D02*
D03*
Y11530000D02*
D03*
Y11657000D02*
D03*
Y11784000D02*
D03*
X10240000D02*
D03*
D13*
X12400000Y6140000D02*
Y7292000D01*
Y6140000D02*
X12606000Y5934000D01*
X12820000D01*
X10534000D02*
X12820000D01*
X9874000D02*
X10534000D01*
X9430000Y5490000D02*
X9874000Y5934000D01*
X8775000Y8708000D02*
X8777000Y8706000D01*
X9429150Y5490850D02*
X9430000Y5490000D01*
X8116150Y5490850D02*
X9429150D01*
X8115300Y5491700D02*
X8116150Y5490850D01*
X8108300Y5491700D02*
X8115300D01*
X7470000Y6130000D02*
X8108300Y5491700D01*
X7470000Y6130000D02*
Y8200000D01*
X8490000Y9220000D01*
X10240000Y11403000D02*
X10282700D01*
X10300000Y10950000D02*
Y11385700D01*
X10282700Y11403000D02*
X10300000Y11385700D01*
Y10950000D02*
X11345000D01*
X10310000Y11657000D02*
X10313000Y11660000D01*
X10910000D01*
X8490000Y9220000D02*
X8493000Y9217000D01*
X8774000D01*
X8777000Y9214000D01*
X13014999Y11530000D02*
X13595000Y10950000D01*
X10240000Y11530000D02*
X13014999D01*
X12400000Y7292000D02*
X12820000Y7712000D01*
Y5934000D02*
X13144000D01*
X13229800Y6019800D01*
X15697200D01*
X16530000Y11490000D02*
X16626500Y11393500D01*
X13589999Y10290000D02*
X14789999Y11490000D01*
X16530000D01*
X16626500Y11137498D02*
Y11393500D01*
X13589999Y10289999D02*
Y10290000D01*
Y10289999D02*
X13589999Y8660000D01*
X12820000Y8982000D02*
X13339999Y8462000D01*
Y7920000D02*
Y8462000D01*
X12820000Y8728000D02*
X13160001Y8388000D01*
X14696201Y6273800D02*
X15697200D01*
X13160001Y7810000D02*
X14696201Y6273800D01*
X13160001Y7810000D02*
Y8388000D01*
X13339999Y7920000D02*
X14732201Y6527800D01*
X15697200D01*
D14*
X14775400Y4678722D02*
Y4778690D01*
X14808722Y4745367D01*
X14842046Y4778690D01*
Y4678722D01*
X14892029Y4745367D02*
X14925352D01*
X14942014Y4728706D01*
Y4678722D01*
X14892029D01*
X14875368Y4695384D01*
X14892029Y4712045D01*
X14942014D01*
X15041982Y4778690D02*
Y4678722D01*
X14991997D01*
X14975336Y4695384D01*
Y4728706D01*
X14991997Y4745367D01*
X15041982D01*
X15125287Y4678722D02*
X15091965D01*
X15075304Y4695384D01*
Y4728706D01*
X15091965Y4745367D01*
X15125287D01*
X15141948Y4728706D01*
Y4712045D01*
X15075304D01*
X15275240Y4778690D02*
Y4678722D01*
X15325223D01*
X15341884Y4695384D01*
Y4712045D01*
Y4728706D01*
X15325223Y4745367D01*
X15275240D01*
X15375208D02*
Y4695384D01*
X15391869Y4678722D01*
X15441852D01*
Y4662061D01*
X15425191Y4645400D01*
X15408530D01*
X15441852Y4678722D02*
Y4745367D01*
X15575142Y4778690D02*
Y4678722D01*
X15625127D01*
X15641788Y4695384D01*
Y4762029D01*
X15625127Y4778690D01*
X15575142D01*
X15675110D02*
Y4678722D01*
Y4728706D01*
X15691772Y4745367D01*
X15725095D01*
X15741756Y4728706D01*
Y4678722D01*
X15775078Y4745367D02*
Y4678722D01*
Y4712045D01*
X15791739Y4728706D01*
X15808400Y4745367D01*
X15825063D01*
X15875046D02*
Y4695384D01*
X15891707Y4678722D01*
X15941692D01*
Y4745367D01*
X15975014D02*
X16008336Y4678722D01*
X16041660Y4745367D01*
X16174950Y4678722D02*
Y4778690D01*
X16224933D01*
X16241594Y4762029D01*
Y4728706D01*
X16224933Y4712045D01*
X16174950D01*
X16208272D02*
X16241594Y4678722D01*
X16291579Y4745367D02*
X16324901D01*
X16341562Y4728706D01*
Y4678722D01*
X16291579D01*
X16274918Y4695384D01*
X16291579Y4712045D01*
X16341562D01*
X16391547Y4762029D02*
Y4745367D01*
X16374886D01*
X16408208D01*
X16391547D01*
Y4695384D01*
X16408208Y4678722D01*
X16458191Y4778690D02*
Y4678722D01*
Y4728706D01*
X16474852Y4745367D01*
X16508176D01*
X16524837Y4728706D01*
Y4678722D01*
X16574820D02*
X16608144D01*
X16624805Y4695384D01*
Y4728706D01*
X16608144Y4745367D01*
X16574820D01*
X16558159Y4728706D01*
Y4695384D01*
X16574820Y4678722D01*
X16724773Y4778690D02*
Y4678722D01*
X16674788D01*
X16658127Y4695384D01*
Y4728706D01*
X16674788Y4745367D01*
X16724773D01*
X7495400Y11787751D02*
Y11635400D01*
X7571575D01*
X7596967Y11660792D01*
Y11762359D01*
X7571575Y11787751D01*
X7495400D01*
X7647751Y11635400D02*
Y11787751D01*
X7723926D01*
X7749318Y11762359D01*
Y11711575D01*
X7723926Y11686183D01*
X7647751D01*
X7800101Y11711575D02*
X7901669D01*
X8054019Y11787751D02*
X8003236Y11762359D01*
X7952452Y11711575D01*
Y11660792D01*
X7977844Y11635400D01*
X8028628D01*
X8054019Y11660792D01*
Y11686183D01*
X8028628Y11711575D01*
X7952452D01*
X8104803Y11762359D02*
X8130195Y11787751D01*
X8180978D01*
X8206370Y11762359D01*
Y11660792D01*
X8180978Y11635400D01*
X8130195D01*
X8104803Y11660792D01*
Y11762359D01*
D15*
X8115300Y5491700D02*
D03*
Y7741700D02*
D03*
X9430000Y5490000D02*
D03*
Y7740000D02*
D03*
X15839999Y8660000D02*
D03*
X13589999D02*
D03*
X11345000Y10950000D02*
D03*
X13595000D02*
D03*
D16*
X15697200Y6273800D02*
D03*
Y6527800D02*
D03*
Y6781800D02*
D03*
Y6019800D02*
D03*
Y5765800D02*
D03*
D17*
X12820000Y7966000D02*
D03*
X10534000Y6950000D02*
D03*
X12820000Y5680000D02*
D03*
Y5934000D02*
D03*
Y6188000D02*
D03*
Y6442000D02*
D03*
Y6696000D02*
D03*
Y6950000D02*
D03*
Y7204000D02*
D03*
Y7458000D02*
D03*
Y7712000D02*
D03*
Y8220000D02*
D03*
Y8474000D02*
D03*
Y8728000D02*
D03*
Y8982000D02*
D03*
Y9236000D02*
D03*
X10534000Y5680000D02*
D03*
Y5934000D02*
D03*
Y6188000D02*
D03*
Y6442000D02*
D03*
Y6696000D02*
D03*
Y7204000D02*
D03*
Y7458000D02*
D03*
Y7712000D02*
D03*
Y7966000D02*
D03*
Y8220000D02*
D03*
Y8474000D02*
D03*
Y8728000D02*
D03*
Y8982000D02*
D03*
D18*
X10661000Y5299000D02*
D03*
X12693000D02*
D03*
Y9617000D02*
D03*
X10661000D02*
D03*
D19*
X10534000Y9236000D02*
D03*
D20*
X8777000Y9468000D02*
D03*
Y8452000D02*
D03*
Y8706000D02*
D03*
Y8960000D02*
D03*
Y9214000D02*
D03*
D21*
X10300000Y10950000D02*
D03*
X10910000Y11660000D02*
D03*
X8490000Y9220000D02*
D03*
%TF.MD5,01f015364f9e35b50b81445d0f677bda*%
M02*
