%TF.GenerationSoftware,Altium Limited,Altium Designer,25.4.2 (15)*%
G04 Layer_Color=16711935*
%FSLAX45Y45*%
%MOMM*%
%TF.SameCoordinates,9C674899-BB42-4E37-9990-F62A7BD06B00*%
%TF.FilePolarity,Negative*%
%TF.FileFunction,Soldermask,Bot*%
%TF.Part,Single*%
G01*
G75*
%TA.AperFunction,ViaPad*%
%ADD28C,0.20320*%
%TA.AperFunction,ComponentPad*%
%ADD29C,1.80320*%
%ADD30R,1.71120X1.71120*%
%ADD31C,1.95580*%
%ADD32C,3.40320*%
%ADD33R,1.95580X1.95580*%
%ADD34C,1.80340*%
%TA.AperFunction,ViaPad*%
%ADD35C,1.47320*%
D28*
X16500000Y11700000D02*
D03*
X7000000D02*
D03*
X7260000Y8490000D02*
D03*
Y9410000D02*
D03*
X16500000Y5000000D02*
D03*
X7000000D02*
D03*
D29*
X8115300Y5491700D02*
D03*
Y7741700D02*
D03*
X9430000Y5490000D02*
D03*
Y7740000D02*
D03*
X15839999Y8660000D02*
D03*
X13589999D02*
D03*
X11345000Y10950000D02*
D03*
X13595000D02*
D03*
D30*
X15697200Y6273800D02*
D03*
Y6527800D02*
D03*
Y6781800D02*
D03*
Y6019800D02*
D03*
Y5765800D02*
D03*
D31*
X12820000Y7966000D02*
D03*
X10534000Y6950000D02*
D03*
X12820000Y5680000D02*
D03*
Y5934000D02*
D03*
Y6188000D02*
D03*
Y6442000D02*
D03*
Y6696000D02*
D03*
Y6950000D02*
D03*
Y7204000D02*
D03*
Y7458000D02*
D03*
Y7712000D02*
D03*
Y8220000D02*
D03*
Y8474000D02*
D03*
Y8728000D02*
D03*
Y8982000D02*
D03*
Y9236000D02*
D03*
X10534000Y5680000D02*
D03*
Y5934000D02*
D03*
Y6188000D02*
D03*
Y6442000D02*
D03*
Y6696000D02*
D03*
Y7204000D02*
D03*
Y7458000D02*
D03*
Y7712000D02*
D03*
Y7966000D02*
D03*
Y8220000D02*
D03*
Y8474000D02*
D03*
Y8728000D02*
D03*
Y8982000D02*
D03*
D32*
X10661000Y5299000D02*
D03*
X12693000D02*
D03*
Y9617000D02*
D03*
X10661000D02*
D03*
D33*
X10534000Y9236000D02*
D03*
D34*
X8777000Y9468000D02*
D03*
Y8452000D02*
D03*
Y8706000D02*
D03*
Y8960000D02*
D03*
Y9214000D02*
D03*
D35*
X10300000Y10950000D02*
D03*
X10910000Y11660000D02*
D03*
X8490000Y9220000D02*
D03*
%TF.MD5,98cf38e7c1eed1c1d264a62b1ac7bdd3*%
M02*
